<svg xmlns="http://www.w3.org/2000/svg" xmlns:xlink="http://www.w3.org/1999/xlink" width="810" height="675.853" viewBox="0 0 810 675.853">
  <defs>
    <style>
      .cls-1 {
        fill: #f48baa;
      }

      .cls-2 {
        fill: #ffebeb;
      }

      .cls-3 {
        clip-path: url(#clip-path);
      }

      .cls-4 {
        fill: #ffadc5;
      }

      .cls-5, .cls-6 {
        fill: #6b53f4;
      }

      .cls-6 {
        stroke: rgba(0,0,0,0);
      }

      .cls-7 {
        fill: #45598d;
      }

      .cls-8, .cls-9 {
        fill: #fff;
      }

      .cls-8 {
        font-size: 29px;
        font-family: JosefinSans-Bold, Josefin Sans;
        font-weight: 700;
      }

      .cls-10 {
        fill: #ff86b5;
      }

      .cls-11 {
        fill: #ed6d9f;
      }
    </style>
    <clipPath id="clip-path">
      <path id="Path_3" data-name="Path 3" class="cls-1" d="M1863.5,939.363s35.32,16.924,35.32,98.6c0,0,45.99,4.415,92.347,0,0,0-16.188-40.839-8.462-171.406Z" transform="translate(-1863.5 -866.559)"/>
    </clipPath>
  </defs>
  <g id="Group_5" data-name="Group 5" transform="translate(-48 -222)">
    <circle id="Ellipse_5" data-name="Ellipse 5" class="cls-2" cx="337.69" cy="337.69" r="337.69" transform="translate(115.31 222)"/>
    <g id="Mask_Group_1" data-name="Mask Group 1" class="cls-3" transform="translate(539.719 724.484)">
      <circle id="Ellipse_6" data-name="Ellipse 6" class="cls-1" cx="337.69" cy="337.69" r="337.69" transform="translate(-424.409 -502.484)"/>
    </g>
    <ellipse id="Ellipse_2" data-name="Ellipse 2" class="cls-4" cx="146.431" cy="168.506" rx="146.431" ry="168.506" transform="translate(383.721 479.407)"/>
    <ellipse id="Ellipse_3" data-name="Ellipse 3" class="cls-1" cx="18.028" cy="26.122" rx="18.028" ry="26.122" transform="translate(440.043 745.998) rotate(-45)"/>
    <path id="Path_4" data-name="Path 4" class="cls-5" d="M1749.228,749.985a4.039,4.039,0,0,1-3.141-1.492c-5.337-6.555-11.091-9.9-17.1-9.954h-.144c-10.64,0-19.113,9.907-19.2,10.008a4.047,4.047,0,1,1-6.188-5.217c.445-.528,11.027-12.885,25.387-12.885h.212c8.538.073,16.381,4.425,23.312,12.938a4.047,4.047,0,0,1-3.136,6.6Z" transform="translate(-1281.251 -106.118)"/>
    <path id="Path_5" data-name="Path 5" class="cls-4" d="M1661.667,804.5s-15.453,41.943-13.245,45.622,19.867,2.207,25.018,0S1661.667,804.5,1661.667,804.5Z" transform="translate(-1266.909 -125.681)"/>
    <path id="Union_2" data-name="Union 2" class="cls-6" d="M309.136,158.859c-47.612,6.066-71.757-5.619-92.167-17.306-22.459-12.859-40.4-25.717-80.1-14.923C83.635,141.1,40.218,269.238,33.848,136.2a137.468,137.468,0,0,1,2.2-33.137C17.053,112.28,0,119.272,0,119.272,5.155,92.923,43.314,64.79,59.969,53.618,107.564-1.13,203.091.067,203.091.067c17.66,0,181.016-5.151,228.109,75.055,44.747,76.211-84.622,196.468-84.622,196.468C349.523,221.553,365.711,151.648,309.136,158.859Z" transform="translate(326.694 413.484)"/>
    <path id="Path_7" data-name="Path 7" class="cls-4" d="M1985,672.355s7.358-44.15,44.15-29.433c45.241,18.1-.736,112.583-27.226,94.923C2001.924,737.845,2011.122,692.591,1985,672.355Z" transform="translate(-1355.877 -82.205)"/>
    <path id="Path_9" data-name="Path 9" class="cls-5" d="M2023.978,715.079a14.328,14.328,0,1,0-15.857,3.4l-18.471,18.47a4.415,4.415,0,0,0,6.244,6.244l28.1-28.1Z" transform="translate(-1356.764 -95.661)"/>
    <rect id="Rectangle_15" data-name="Rectangle 15" class="cls-7" width="377.62" height="117.507" rx="52" transform="translate(48 307.563)"/>
    <text id="What_s_your_all_time_favorite_movie_" data-name="What’s your all time
favorite movie?" class="cls-8" transform="translate(94.775 355.662)"><tspan x="0" y="0">What’s your all time</tspan><tspan x="0" y="35">favorite movie?</tspan></text>
    <g id="Group_3" data-name="Group 3" transform="translate(195.182 622.583)">
      <rect id="Rectangle_10" data-name="Rectangle 10" class="cls-5" width="18.509" height="78.058" rx="9.254" transform="translate(84.496 24.142)"/>
      <rect id="Rectangle_14" data-name="Rectangle 14" class="cls-5" width="18.509" height="26.556" rx="9.254" transform="translate(112.662 49.893)"/>
      <rect id="Rectangle_11" data-name="Rectangle 11" class="cls-5" width="18.509" height="126.342" rx="9.254" transform="translate(56.331)"/>
      <rect id="Rectangle_12" data-name="Rectangle 12" class="cls-5" width="18.509" height="32.994" rx="9.254" transform="translate(28.165 46.674)"/>
      <rect id="Rectangle_13" data-name="Rectangle 13" class="cls-5" width="18.509" height="18.509" rx="9.254" transform="translate(0 53.917)"/>
    </g>
    <rect id="Rectangle_16" data-name="Rectangle 16" class="cls-9" width="353.662" height="68.451" rx="34.225" transform="translate(504.338 300.718)"/>
    <rect id="Rectangle_18" data-name="Rectangle 18" class="cls-9" width="246.423" height="65.028" rx="29" transform="translate(60.549 479.831)"/>
    <g id="Group_4" data-name="Group 4" transform="translate(50.282 776.451)">
      <rect id="Rectangle_20" data-name="Rectangle 20" class="cls-10" width="374.197" height="102.676" rx="45" transform="translate(0 0)"/>
      <rect id="Rectangle_19" data-name="Rectangle 19" class="cls-9" width="249.845" height="9.127" rx="4" transform="translate(49.056 46.775)"/>
      <rect id="Rectangle_21" data-name="Rectangle 21" class="cls-11" width="68.451" height="9.127" rx="4" transform="translate(230.451 46.775)"/>
      <circle id="Ellipse_7" data-name="Ellipse 7" class="cls-9" cx="19.394" cy="19.394" r="19.394" transform="translate(205.352 31.944)"/>
    </g>
  </g>
</svg>
