<?xml version="1.0" encoding="UTF-8"?>
<svg width="428px" height="509px" viewBox="0 0 428 509" version="1.1" xmlns="http://www.w3.org/2000/svg" xmlns:xlink="http://www.w3.org/1999/xlink">
    <!-- Generator: Sketch 60 (88103) - https://sketch.com -->
    <title>pic/donateandsubscriptions</title>
    <desc>Created with Sketch.</desc>
    <g id="pic/donateandsubscriptions" stroke="none" stroke-width="1" fill="none" fill-rule="evenodd">
        <g id="Group-3" fill-rule="nonzero">
            <path d="M67.4904219,73.3737786 C25.5421183,99.7401267 -4.16769739,147.103031 0.478282019,191.747441 C5.22818465,236.287998 44.3461087,278.201695 57.7827702,331.032134 C71.2194317,383.862574 59.0970933,447.786918 81.5383965,480.305006 C103.869663,512.933057 161.009097,514.344231 207.566701,500.000351 C254.258794,485.760324 290.442416,455.765243 330.666816,428.897958 C370.891217,402.128418 415.08304,378.395039 425.475362,344.154219 C435.867684,310.017251 412.436054,265.348405 386.962638,232.048367 C361.593145,198.613932 334.004586,176.597176 305.50517,145.79571 C277.005754,114.994244 247.491558,75.4997028 205.647178,58.4373279 C163.704988,41.362735 109.426499,46.9157958 67.4904219,73.3737786 Z" id="Path" fill="#FCF5EF"></path>
            <path d="M192.142175,206.183563 C193.465513,206.258943 194.48965,207.350488 194.499993,208.65728 L194.495954,208.821692 L185.495954,366.821692 C185.417433,368.200169 184.236303,369.253992 182.857825,369.175471 C181.534487,369.100091 180.51035,368.008546 180.500007,366.701754 L180.504046,366.537342 L189.504046,208.537342 C189.579426,207.214004 190.670971,206.189867 191.977763,206.179524 L192.142175,206.183563 Z" id="Path" fill="#FCD1B0"></path>
            <path d="M288.00338,223.175021 C288.83429,222.072318 290.401793,221.851987 291.504496,222.682897 C292.559255,223.47768 292.806703,224.946397 292.099052,226.037645 L291.99662,226.184013 L184.99662,368.184013 C184.16571,369.286716 182.598207,369.507047 181.495504,368.676137 C180.440745,367.881354 180.193297,366.412637 180.900948,365.321389 L181.00338,365.175021 L288.00338,223.175021 Z" id="Path" fill="#FCD1B0"></path>
            <path d="M293.730102,118.631872 C294.3087,117.378241 295.794015,116.83102 297.047645,117.409619 C298.249041,117.964109 298.801669,119.35133 298.33639,120.569334 L298.269898,120.727162 L184.269898,367.727162 C183.6913,368.980793 182.205985,369.528014 180.952355,368.949415 C179.750959,368.394925 179.198331,367.007704 179.66361,365.7897 L179.730102,365.631872 L293.730102,118.631872 Z" id="Path" fill="#FCD1B0"></path>
            <path d="M365.944405,95.3744014 C377.597678,63.3640216 366.806626,30.0580344 341.841916,20.9833949 C316.877204,11.9087576 287.192462,30.5018489 275.539185,62.512227 C263.885913,94.5226068 274.676964,127.828594 299.641675,136.903233 C324.606386,145.977871 354.291128,127.384779 365.944405,95.3744014 Z" id="Oval" fill="#FEA8BF"></path>
            <path d="M246.510831,164.727351 C248.882772,130.747341 229.322454,101.703748 202.82164,99.8566703 C176.320825,98.0095927 152.914832,124.058481 150.542892,158.038491 C148.170951,192.018501 167.731268,221.062094 194.232083,222.909171 C220.732898,224.756249 244.138891,198.707361 246.510831,164.727351 Z" id="Oval" fill="#FCC99D"></path>
            <path d="M372.664393,192.117177 C389.205524,158.15317 379.366062,119.314379 350.687336,105.368305 C322.008608,91.4222349 285.350667,107.649976 268.809529,141.613979 C252.268397,175.577986 262.10786,214.416777 290.786586,228.362851 C319.465314,242.308921 356.123255,226.08118 372.664393,192.117177 Z" id="Oval" fill="#A2ECF5"></path>
            <path d="M279.041232,65.9680009 C283.932512,33.8399301 266.312443,4.5137258 239.685707,0.466090284 C213.05897,-3.58154523 187.50857,19.1821453 182.617291,51.310216 C177.726011,83.4382868 195.34608,112.764491 221.972816,116.812127 C248.599553,120.859762 274.149953,98.0960717 279.041232,65.9680009 Z" id="Oval" fill="#A2ECF5"></path>
            <path d="M293.911169,150.67455 C303.068418,120.519348 292.337546,90.5691024 269.943094,83.7788031 C247.548643,76.9885039 221.970935,95.9294997 212.813683,126.084701 C203.656434,156.239903 214.387306,186.190149 236.781757,192.980448 C259.176209,199.770747 284.753917,180.829752 293.911169,150.67455 Z" id="Oval" fill="#FCD1B0"></path>
            <path d="M194.199315,221.120266 L199.811146,234.336766 C200.143499,235.126512 200.03189,236.033885 199.518125,236.719003 C199.00436,237.404121 198.165971,237.763595 197.316999,237.662773 L183.106595,235.905991 C182.255701,235.802693 181.524776,235.251247 181.190099,234.460089 C180.855421,233.668931 180.968045,232.758751 181.485399,232.073581 L190.108914,220.613863 C190.62587,219.941991 191.458176,219.593659 192.298127,219.697648 C193.138078,219.801636 193.860881,220.342494 194.199315,221.120266 Z" id="Path" fill="#FCC99D"></path>
            <path d="M162.780586,137.189164 C164.100954,137.072832 165.271858,138.005201 165.470629,139.296828 L165.490353,139.460103 L185.490353,366.460103 C185.611532,367.835487 184.594798,369.048691 183.219414,369.16987 C181.899046,369.286202 180.728142,368.353833 180.529371,367.062206 L180.509647,366.898931 L160.509647,139.898931 C160.388468,138.523547 161.405202,137.310343 162.780586,137.189164 Z" id="Path" fill="#FCD1B0"></path>
            <path d="M234.605434,185.961147 C235.002179,184.638665 236.395888,183.888207 237.71837,184.284951 C238.987953,184.665826 239.730358,185.965503 239.436705,187.238915 L239.394566,187.397887 L185.394566,367.397887 C184.997821,368.720369 183.604112,369.470827 182.28163,369.074083 C181.012047,368.693208 180.269642,367.393531 180.563295,366.120119 L180.605434,365.961147 L234.605434,185.961147 Z" id="Path" fill="#FCD1B0"></path>
            <path d="M238.762665,187.459619 L241.939867,200.860007 C242.12759,201.660529 241.868824,202.499188 241.261025,203.060129 C240.653225,203.621071 239.788711,203.819095 238.993073,203.579621 L225.653677,199.584065 C224.857011,199.345761 224.249712,198.705413 224.060807,197.904513 C223.871903,197.103613 224.130132,196.264005 224.738109,195.702326 L234.900304,186.303484 C235.507286,185.740018 236.372689,185.53979 237.169797,185.778392 C237.966906,186.016993 238.574298,186.658079 238.762665,187.459619 L238.762665,187.459619 Z" id="Path" fill="#FCD1B0"></path>
            <path d="M292.994624,222.226933 L292.033615,236.449472 C291.979799,237.30456 291.486482,238.064066 290.741343,238.439042 C289.996204,238.814017 289.113797,238.746814 288.429828,238.263001 L277.017837,230.288442 C276.333446,229.811713 275.947509,228.993227 276.005774,228.142078 C276.064038,227.290929 276.557624,226.536817 277.300134,226.164527 L289.691153,219.916546 C290.431114,219.547307 291.305166,219.612981 291.985731,220.088956 C292.666296,220.56493 293.050604,221.37933 292.994624,222.226933 Z" id="Path" fill="#A2ECF5"></path>
            <path d="M163.069728,147.132292 C194.861436,144.576318 218.176123,111.982381 215.144537,74.3316948 C212.112952,36.6810088 183.883095,8.23112334 152.091386,10.7870971 C120.299678,13.3430709 96.9849915,45.9370086 100.016577,83.5876946 C103.048162,121.238381 131.278019,149.688266 163.069728,147.132292 Z" id="Oval" fill="#FEA8BF"></path>
            <path d="M164.49049,141.662598 L172.585247,152.957462 C173.063542,153.632702 173.133136,154.500649 172.76812,155.238174 C172.403104,155.9757 171.658161,156.472314 170.810627,156.543133 L156.582535,157.672619 C155.731094,157.735949 154.908837,157.359781 154.423936,156.685097 C153.939035,156.010413 153.864715,155.139096 154.228829,154.397706 L160.362164,142.003237 C160.723985,141.259749 161.471909,140.758263 162.323765,140.687974 C163.175622,140.617685 164.001755,140.989292 164.49049,141.662598 Z" id="Path" fill="#FEA8BF"></path>
            <polygon id="Rectangle" fill="#FCE5D4" points="260.082612 505.931367 126.2569 479.356087 150.08035 359.568449 283.906062 386.14373"></polygon>
            <polygon id="Path" fill="#FCD1B0" points="155.370094 401.14769 289 427.679517 283.636008 386.211344 150 359.679517"></polygon>
            <polygon id="Rectangle" fill="#FCD1B0" points="126.269107 479.346816 49.6491369 464.131525 73.4725873 344.343888 150.092557 359.559179"></polygon>
            <polygon id="Path" fill="#FCE5D4" points="129.50687 395.679517 53 380.371278 73.4992437 343.679517 150 358.993911"></polygon>
            <polygon id="Rectangle" fill="#FCD1B0" points="208.701052 495.726354 177.640683 489.558347 184.668601 454.220994 215.728969 460.389001"></polygon>
            <polygon id="Rectangle" fill="#FCF5EF" points="190.876109 442.286452 144.099746 432.997542 149.230126 407.201275 196.006489 416.490184"></polygon>
            <polygon id="Rectangle" fill="#FCD1B0" points="187.389838 437.674169 176.816605 435.574523 180.543784 416.833747 191.117016 418.933393"></polygon>
            <polygon id="Rectangle" fill="#FCD1B0" points="177.573225 420.060053 151.152132 414.813319 151.862071 411.243647 178.283164 416.490382"></polygon>
            <polygon id="Rectangle" fill="#FCD1B0" points="176.35151 426.167567 149.930417 420.920833 150.640356 417.351161 177.061449 422.597895"></polygon>
        </g>
    </g>
</svg>