<svg id="圖層_1" data-name="圖層 1" xmlns="http://www.w3.org/2000/svg" viewBox="0 0 2500 2500"><defs><style>.cls-1{fill:#0066d9;}.cls-2{fill:#4285f4;}.cls-3{fill:#ea4335;}.cls-4{fill:#34a853;}.cls-5{fill:#fab908;}</style></defs><title>google-podcasts</title><path class="cls-1" d="M312.5,1164.77v170.46a156.25,156.25,0,0,1-312.5,0V1164.77a156.25,156.25,0,0,1,312.5,0Z"/><path class="cls-2" d="M2187.56,1169.21q-.06-2.22-.06-4.44a156.25,156.25,0,0,1,312.5,0c0,1.48,0,3-.06,4.44h.06v170.46h-.06a156.25,156.25,0,0,1-312.38,0h-.06V1169.21Z"/><path class="cls-3" d="M852.27,1676.14v170.45a156.25,156.25,0,0,1-312.5,0V1676.13a156.25,156.25,0,0,1,312.5,0Zm0-1022.73v557.53h0a156.25,156.25,0,0,1-312.42,0h0V653.41a156.25,156.25,0,0,1,312.5,0Z"/><path class="cls-4" d="M1647.73,823.86a156.25,156.25,0,1,0,312.5,0V653.41a156.25,156.25,0,0,0-312.5,0Z"/><path class="cls-5" d="M1093.75,326.71a156.25,156.25,0,1,0,312.5,0V156.25a156.25,156.25,0,0,0-312.5,0Zm0,1846.58a156.25,156.25,0,0,1,312.5,0v170.46a156.25,156.25,0,0,1-312.5,0Z"/><path class="cls-4" d="M1647.73,1292.61a156.25,156.25,0,0,1,312.5,0v554a156.25,156.25,0,0,1-312.5,0Z"/><path class="cls-5" d="M1406.25,795.46v909.08a156.25,156.25,0,0,1-312.5,0V795.46a156.25,156.25,0,0,1,312.5,0Z"/></svg>