<?xml version="1.0" encoding="UTF-8"?>
<svg width="583px" height="655px" viewBox="0 0 583 655" version="1.1" xmlns="http://www.w3.org/2000/svg" xmlns:xlink="http://www.w3.org/1999/xlink">
    <!-- Generator: Sketch 60 (88103) - https://sketch.com -->
    <title>pic/headphone</title>
    <desc>Created with Sketch.</desc>
    <g id="pic/headphone" stroke="none" stroke-width="1" fill="none" fill-rule="evenodd">
        <g id="Group-3">
            <path d="M274.52209,4.28100998 C351.825705,-18.0011543 457.055792,49.6246722 517.327439,139.214153 C577.599086,228.803633 592.89876,340.485528 554.876262,413.031321 C516.982333,485.712651 425.976003,519.366309 336.837302,565.658725 C247.698602,611.951141 160.610233,670.699342 97.6657108,651.13468 C34.7211883,631.570018 -3.93738581,533.584065 0.318914406,453.793857 C4.41957884,374.00365 51.5975202,312.70059 99.716043,225.794728 C147.990202,138.92275 197.211708,26.7122642 274.52209,4.28100998 Z" id="Path" fill="#FCF5EF" fill-rule="nonzero"></path>
            <path d="M90.288,462.19 L90.5955875,461.187476 C95.9631861,443.558092 98.3963321,430.9153 98.4862381,414.907582 L98.4888295,413.980267 C98.4888295,405.637672 96.9067044,398.267853 93.8230046,391.045058 L93.5198972,390.346509 C91.0973303,384.851507 88.5579699,380.619923 83.0244015,372.394839 L80.5494478,368.720923 C75.2248919,360.769436 72.6943759,356.493167 70.2005156,350.830286 C66.6123995,342.682646 64.7578788,334.318457 64.7578788,324.830024 C64.7578788,323.708886 65.6667407,322.800024 66.7878788,322.800024 C67.9090168,322.800024 68.8178788,323.708886 68.8178788,324.830024 C68.8178788,333.469423 70.4460942,341.074739 73.6146062,348.498491 L73.9161641,349.193962 C76.2912863,354.587221 78.7361937,358.717125 83.9440301,366.49336 L87.0957964,371.175757 C92.2803045,378.921991 94.7952412,383.174949 97.2348874,388.708691 C100.739509,396.658068 102.548829,404.788062 102.548829,413.980267 C102.548829,430.897583 100.058211,444.045855 94.4822668,462.361108 L90.7113049,474.575501 L90.4421656,475.471343 C89.1420077,479.85607 88.2037502,483.44227 87.4937511,486.873214 C86.4748146,491.797044 85.9571772,496.311259 85.9571772,500.770891 C85.9571772,555.737683 131.474447,602.442125 186.33026,602.442125 C239.203637,602.442125 281.950314,555.980979 281.950314,498.763858 C281.950314,483.573257 280.47981,473.306987 277.227313,460.983972 L276.712014,459.073623 C276.37013,457.843615 275.036491,453.036415 274.448828,450.832097 L274.290074,450.229727 C270.268504,434.706364 270.2978,422.040634 275.99966,399.088824 C293.593473,328.297779 344.741848,296.01698 432.926564,296.01698 C482.527602,296.01698 521.306773,316.488818 547.637377,352.558815 C570.017504,383.217097 582.03,423.918471 582.03,463.003409 C582.03,515.296576 563.140184,558.52479 531.534277,586.316972 C503.02451,611.386607 466.939586,620.786911 437.914927,611.075954 C389.404423,594.859261 365.691102,562.54583 364.928372,521.988855 C364.316217,489.438442 379.722262,454.262867 399.498264,438.067208 C400.365648,437.356859 401.644653,437.484161 402.355002,438.351545 C403.065351,439.218929 402.938048,440.497935 402.070664,441.208283 C383.281165,456.596041 368.398346,490.576969 368.987654,521.912515 C369.718089,560.75225 392.32182,591.553676 439.202626,607.225574 C466.767406,616.44809 501.371827,607.433465 528.85327,583.268069 C559.567998,556.259534 577.97,514.147652 577.97,463.003409 C577.97,424.742574 566.205291,384.880763 544.358146,354.952608 C518.778468,319.911297 481.206935,300.07698 432.926564,300.07698 C346.464115,300.07698 297.038104,331.270759 279.939844,400.067879 L279.557836,401.625379 C274.523787,422.424755 274.461554,434.129923 277.955065,448.167291 L278.220326,449.211534 C278.729232,451.175924 280.720201,458.334013 280.710293,458.29763 L281.146732,459.924592 C284.487929,472.577901 286.010314,483.186901 286.010314,498.763858 C286.010314,558.151202 241.524943,606.502125 186.33026,606.502125 C129.208443,606.502125 81.8971772,557.956897 81.8971772,500.770891 C81.8971772,496.016593 82.4459366,491.230968 83.517988,486.050471 C84.2109461,482.701874 85.1069525,479.23599 86.3187433,475.100526 L86.9669762,472.933333 C87.1617284,472.293565 87.3919221,471.542505 87.6388593,470.739786 L90.288,462.19 Z" id="Path" fill="#FCD1B0" fill-rule="nonzero"></path>
            <path d="M36.9028083,261.089378 C39.2781317,260.614533 41.5905011,262.09759 42.168796,264.424253 L42.2152793,264.631708 L48.3667945,295.40352 C48.8556054,297.848706 47.2696502,300.22718 44.8244644,300.715991 C42.449141,301.190836 40.1367716,299.707779 39.5584767,297.381116 L39.5119934,297.173661 L33.3604783,266.401849 C32.8716674,263.956663 34.4576226,261.578189 36.9028083,261.089378 Z" id="Path" fill="#FCD1B0" fill-rule="nonzero"></path>
            <polygon id="Path" fill="#FCD1B0" points="42.1818182 278.162648 52.6232057 276.067114 60.6363636 316.179683 50.1949761 318.268456"></polygon>
            <path d="M98.7000451,245.865994 C98.0850587,242.836868 96.0238146,240.295885 93.1765772,239.05698 C90.3293399,237.818076 87.0534927,238.036756 84.3983658,239.642973 C64.592682,251.913446 54.5112406,275.106004 59.0935993,297.857097 C63.6759579,320.608189 81.9622336,338.152063 104.992784,341.892829 C108.072162,342.371482 111.192426,341.323392 113.349001,339.085995 C115.505576,336.848597 116.426167,333.704391 115.814388,330.665659 L98.7000451,245.865994 Z" id="Path" fill="#A2ECF5"></path>
            <path d="M306.690687,206.579311 C309.06601,206.104466 311.37838,207.587523 311.956675,209.914186 L312.003158,210.121641 L318.154673,240.893453 C318.643484,243.338639 317.057529,245.717113 314.612343,246.205924 C312.23702,246.680769 309.92465,245.197712 309.346356,242.871049 L309.299872,242.663594 L303.148357,211.891782 C302.659546,209.446596 304.245501,207.068122 306.690687,206.579311 Z" id="Path" fill="#FCD1B0" fill-rule="nonzero"></path>
            <polygon id="Path" fill="#FCD1B0" points="308.499935 224.194631 297.909091 226.353958 305.772792 266.395973 316.363636 264.229899"></polygon>
            <path d="M243.608717,216.870521 C243.003715,213.885839 243.906646,210.79581 246.026137,208.597578 C248.145628,206.399346 251.213345,205.371214 254.239345,205.844956 C277.349867,209.489106 295.737585,227.042801 300.332158,249.847109 C304.926731,272.651417 294.757538,295.888841 274.840865,308.096764 C272.235198,309.690403 269.010318,309.917561 266.204562,308.705096 C263.398806,307.492632 261.366468,304.993649 260.761913,302.012761 L243.608717,216.870521 Z" id="Path" fill="#A2ECF5"></path>
            <polygon id="Path" fill="#A2ECF5" points="49.2121212 271.346407 60.7386092 269.033557 72.0606061 325.626747 60.534118 327.939597"></polygon>
            <polygon id="Path" fill="#A2ECF5" points="298.883308 220.677852 287.363636 222.990702 298.685633 279.583893 310.212121 277.271043"></polygon>
            <path d="M141.355797,82.1141929 C222.993368,65.697365 302.404468,118.842208 318.738957,200.782903 C320.161474,207.91885 315.529824,214.856856 308.393877,216.279373 C301.359872,217.681568 294.518193,213.201337 292.961733,206.238576 L292.897407,205.934293 C279.406758,138.259494 213.881084,94.4072923 146.550629,107.947044 C79.8811008,121.353888 36.399309,186.027044 48.6302972,252.99803 L49.01802,255.028107 C50.4406612,262.164029 45.8091319,269.102116 38.6732098,270.524757 C31.5372877,271.947398 24.5992013,267.315869 23.1765601,260.179947 C6.84456695,178.2592 59.7388226,98.5268788 141.355797,82.1141929 Z" id="Path" fill="#A2ECF5" fill-rule="nonzero"></path>
            <path d="M473.097711,492.348993 C472.478946,492.348993 471.861983,492.282127 471.256926,492.152339 L367.712752,470.194904 C361.78434,468.940387 358.238122,461.90153 359.787901,454.510052 L409.759808,217.928515 C411.113326,211.47962 416.175486,206.610738 421.508349,206.610738 C422.127096,206.610738 422.744023,206.677947 423.349135,206.807392 L526.893309,228.764828 C532.82172,230.026126 536.367939,237.058202 534.81816,244.449679 L484.846253,481.037998 C483.485967,487.486893 478.417039,492.348993 473.097711,492.348993 Z" id="Path" fill="#FFFFFF"></path>
            <path d="M421.471599,204.000218 L421.471599,210.766233 C421.854386,210.766233 422.236077,210.80706 422.610175,210.888021 L526.30187,232.796375 C530.368211,233.655659 532.780907,238.987278 531.628777,244.440685 L481.592451,480.486622 C480.548757,485.398748 476.916159,489.099758 473.141239,489.099758 C472.758452,489.099758 472.376761,489.05893 472.002663,488.977969 L368.310968,467.069615 C365.918604,466.562164 364.55638,464.613552 363.959983,463.503926 C362.706344,461.005325 362.363663,458.14879 362.990838,455.425305 L413.027164,219.379369 C414.070858,214.474008 417.703456,210.766233 421.478376,210.766233 L421.478376,204.000218 M421.478376,204.000218 C414.592706,204.000218 408.140778,209.771629 406.399028,217.978804 L356.349148,454.02474 C354.397304,463.240051 359.121037,472.042636 366.901303,473.686777 L470.592998,495.601897 C471.428897,495.776312 472.280502,495.865772 473.134462,495.865772 C480.020132,495.865772 486.47206,490.101128 488.213809,481.887187 L538.256913,245.84125 C540.208756,236.625939 535.485024,227.823354 527.704758,226.179213 L424.019839,204.243795 C423.182403,204.063865 422.328209,203.973154 421.471599,203.973154 L421.478376,204.000218 Z" id="Shape" fill="#FCD1B0" fill-rule="nonzero"></path>
            <polygon id="Path" fill="#FCD1B0" points="448.181818 214.52349 450.01514 226.674521 496.40089 236.503356 503.545455 226.222233"></polygon>
            <path d="M393.364547,462.510709 C393.805869,460.452157 395.782879,459.117773 397.837914,459.450555 L398.036983,459.487996 L447.249104,470.038332 C449.374061,470.49389 450.727375,472.585811 450.271817,474.710768 C449.830494,476.76932 447.853484,478.103703 445.79845,477.770921 L445.599381,477.73348 L396.387259,467.183145 C394.262303,466.727586 392.908988,464.635665 393.364547,462.510709 Z" id="Path" fill="#FED892" fill-rule="nonzero"></path>
        </g>
    </g>
</svg>