<?xml version="1.0" encoding="UTF-8"?>
<svg width="537px" height="498px" viewBox="0 0 537 498" version="1.1" xmlns="http://www.w3.org/2000/svg" xmlns:xlink="http://www.w3.org/1999/xlink">
    <!-- Generator: Sketch 60 (88103) - https://sketch.com -->
    <title>pic/holdingphone</title>
    <desc>Created with Sketch.</desc>
    <g id="pic/holdingphone" stroke="none" stroke-width="1" fill="none" fill-rule="evenodd">
        <g id="Group-3" fill-rule="nonzero">
            <path d="M378.780469,15.5894184 C441.515468,24.4659983 520.225468,58.1848316 534.517687,107.854126 C548.81752,157.652728 498.730031,223.28009 451.04869,275.786543 C403.382579,328.414697 358.168302,367.929549 302.77358,394.551682 C247.386472,421.059721 181.940748,434.865198 137.891474,409.863212 C93.9640303,385.036171 71.5853239,321.470123 45.5212504,265.48758 C19.3734185,209.383336 -10.5130812,160.740895 3.64207882,126.641746 C17.8276964,92.6719037 76.0549737,73.2377464 119.852973,61.0143841 C163.650972,48.7910218 192.890248,43.6415405 231.023137,33.220877 C269.026582,22.6632995 315.916025,6.71283854 378.780469,15.5894184 Z" id="Path" fill="#FCF5EF"></path>
            <path d="M179.202284,31 C169.144489,31 166,46.7807566 166,53.0884718 C166,63.7924734 177.314068,108 187.996193,108 C198.678318,108 210,64.4194221 210,59.4038328 C210,54.3882435 196.797716,31 179.202284,31 Z" id="Path" fill="#DE8E68"></path>
            <path d="M197.197932,15.8096941 L339.060771,15.7865729 C353.061188,15.7760258 364.412619,27.1237575 364.414901,41.1241757 C364.414902,41.1269312 364.414902,41.1296867 364.406636,41.1324409 L364.359805,328.239313 C364.349254,342.236502 353.002859,353.582895 339.00567,353.593444 L197.142831,353.616566 C183.142415,353.627113 171.790983,342.279381 171.788701,328.278963 C171.788701,328.276207 171.788701,328.273452 171.796967,328.270698 L171.843798,41.1638254 C171.854349,27.1666367 183.200744,15.8202433 197.197932,15.8096941 Z" id="Rectangle" fill="#FCE5D4" transform="translate(268.101801, 184.701569) rotate(11.100000) translate(-268.101801, -184.701569) "></path>
            <path d="M341,27.1005838 L339.094613,36.705363 C338.112814,41.59747 333.317435,44.7835334 328.368272,43.831974 L263.372569,31.2158449 C258.42981,30.2408946 255.211049,25.4998701 256.168537,20.6047792 L258.111879,11" id="Path" fill="#FCD1B0"></path>
            <polygon id="Path" fill="#FCD1B0" points="133.285922 296.527503 339.285922 336.527503 338.714078 339.472497 132.714078 299.472497"></polygon>
            <circle id="Oval" fill="#FCD1B0" cx="236.5" cy="334.5" r="7.5"></circle>
            <path d="M167.125557,115 C153.850223,115 145,125.069102 145,135.778964 C145,171.036076 165.226893,200 174.092428,200 C193.048441,200 200,189.92327 200,182.996949 C199.984688,177.924257 197.458241,115 167.125557,115 Z" id="Path" fill="#DE8E68"></path>
            <path d="M159.449621,207.66029 C163.203684,211.412682 192,242.07616 192,263.34729 C192,277.750407 188.867822,289 162.574215,289 C150.053088,289 115,239.566985 115,219.546652 C115,208.281899 121.886241,182 141.293608,182 C146.928494,182 159.449621,192.013957 161.32286,194.515551 C163.252078,196.512656 165.298298,198.393428 167.450704,200.147928 C166.661972,204.218704 162.308776,225.633865 162.308776,225.633865" id="Path" fill="#DE8E68"></path>
            <path d="M152.855979,201.029838 C153.391784,200.398012 154.338337,200.320173 154.970162,200.855979 C156.472365,202.129888 158.251251,203.847543 160.255709,205.932 C160.835643,206.53508 161.430969,207.165326 162.039624,207.819867 C163.603733,209.501892 165.199211,211.282149 166.766432,213.078586 L167.702896,214.157734 C168.137761,214.661485 168.548776,215.141314 168.932091,215.591938 L170.154261,217.042044 C170.683326,217.679525 170.595437,218.625197 169.957956,219.154261 C169.320475,219.683326 168.374803,219.595437 167.845739,218.957956 L167.193454,218.180541 C166.668344,217.558528 166.076818,216.865062 165.431996,216.118094 C163.590182,213.984518 161.691786,211.851274 159.842696,209.862783 C159.245096,209.220131 158.661221,208.602007 158.093299,208.011419 C156.153282,205.993975 154.441807,204.341411 153.029838,203.144021 C152.398012,202.608216 152.320173,201.661663 152.855979,201.029838 Z" id="Path" fill="#FCD1B0"></path>
            <path d="M155.382634,334.422064 C153.49966,339.453007 152.218933,388.027099 157.883101,415.038921 C154.071413,434.515747 139,498 139,498 L275.588018,498 L289.432068,442.712911 C289.432068,442.712911 373.716106,369.166773 381.895988,355.984333 C390.07587,342.801894 409.271529,265.830758 408.997088,258.607816 C408.77601,253.584485 317.120167,176.301293 314.604453,173.157905 C312.088739,170.014517 267.827422,214.257889 341.453982,265.176202 C340.821241,271.455366 340.859358,299.190244 340.859358,299.190244 C340.859358,299.190244 289.645522,316.764293 284.44638,320.554625 C279.247238,324.344957 269.298733,351.052335 267.499616,357.042277 C260.539475,355.6875 155.382634,334.422064 155.382634,334.422064 Z" id="Path" fill="#DE8E68"></path>
            <path d="M266.589531,351.489531 C266.871456,350.710551 267.731489,350.307607 268.510469,350.589531 C269.289449,350.871456 269.692393,351.731489 269.410469,352.510469 L268.226333,355.820183 C264.429997,366.533667 258.678331,383.614102 257.452612,388.374057 C257.246026,389.176312 256.428198,389.659198 255.625943,389.452612 C254.823688,389.246026 254.340802,388.428198 254.547388,387.625943 L254.663899,387.185846 C256.292881,381.175248 263.000808,361.405474 266.589531,351.489531 Z" id="Path" fill="#FCD1B0"></path>
        </g>
    </g>
</svg>