<?xml version="1.0" encoding="UTF-8"?>
<svg width="628px" height="484px" viewBox="0 0 628 484" version="1.1" xmlns="http://www.w3.org/2000/svg" xmlns:xlink="http://www.w3.org/1999/xlink">
    <!-- Generator: Sketch 60 (88103) - https://sketch.com -->
    <title>pic/laptopandphone</title>
    <desc>Created with Sketch.</desc>
    <g id="pic/laptopandphone" stroke="none" stroke-width="1" fill="none" fill-rule="evenodd">
        <g id="Group-3">
            <path d="M73,0 L555,0 C570.463973,0 583,12.536027 583,28 L583,381 L45,381 L45,28 C45,12.536027 57.536027,0 73,0 Z" id="Rectangle-Copy-11" fill="#FCE5D4"></path>
            <polygon id="Rectangle-Copy-12" fill="#FCF5EF" points="69 38 559 38 559 360 69 360"></polygon>
            <path d="M3,381 L625,381 C626.656854,381 628,382.343146 628,384 L628,398 C628,407.388841 620.388841,415 611,415 L17,415 C7.61115925,415 0,407.388841 0,398 L0,384 C0,382.343146 1.34314575,381 3,381 Z" id="Rectangle-Copy-13" fill="#FCD1B0"></path>
            <rect id="Rectangle" fill="#FCE5D4" x="120" y="199" width="157" height="285" rx="20"></rect>
            <rect id="Rectangle" fill="#FCF5EF" x="129" y="209" width="139" height="265" rx="16"></rect>
            <path d="M174,209 L223,209 C223,214.522847 218.522847,219 213,219 L184,219 C178.477153,219 174,214.522847 174,209 L174,209 L174,209 Z" id="Rectangle" fill="#FCE5D4"></path>
            <circle id="Oval-Copy-2" fill="#F83961" cx="198.5" cy="398.5" r="32.5"></circle>
            <rect id="Rectangle" fill="#FFFFFF" x="191" y="381" width="15" height="23" rx="7.5"></rect>
            <path d="M211,398 C211.828427,398 212.5,398.671573 212.5,399.5 C212.5,405.934097 206.167621,411 198.5,411 C190.832379,411 184.5,405.934097 184.5,399.5 C184.5,398.671573 185.171573,398 186,398 C186.828427,398 187.5,398.671573 187.5,399.5 C187.5,404.111598 192.360503,408 198.5,408 C204.639497,408 209.5,404.111598 209.5,399.5 C209.5,398.671573 210.171573,398 211,398 Z" id="Path" fill="#FFFFFF" fill-rule="nonzero"></path>
            <path d="M198.5,408 C199.279696,408 199.920449,408.594888 199.993133,409.35554 L200,409.5 L200,415.05957 C200,415.887997 199.328427,416.55957 198.5,416.55957 C197.720304,416.55957 197.079551,415.964682 197.006867,415.20403 L197,415.05957 L197,409.5 C197,408.671573 197.671573,408 198.5,408 Z" id="Path-3" fill="#FFFFFF" fill-rule="nonzero"></path>
            <path d="M202,414.5 C202.828427,414.5 203.5,415.171573 203.5,416 C203.5,416.779696 202.905112,417.420449 202.14446,417.493133 L202,417.5 L195,417.5 C194.171573,417.5 193.5,416.828427 193.5,416 C193.5,415.220304 194.094888,414.579551 194.85554,414.506867 L195,414.5 L202,414.5 Z" id="Path-4" fill="#FFFFFF" fill-rule="nonzero"></path>
            <circle id="Oval" fill="#FB355E" cx="486" cy="113" r="49"></circle>
            <path d="M507,128.010928 L507,136.935928 L465,136.935928 L465,128.010928 L507,128.010928 Z M486,86 L504.747169,104.747169 L498.436241,111.058097 L490.462,103.084 L490.4625,120.617862 L481.5375,120.617862 L481.537,103.083 L473.563759,111.058097 L467.252831,104.747169 L486,86 Z" id="Combined-Shape" fill="#FFFFFF"></path>
            <path d="M106,72 L316,72 C323.179702,72 329,77.8202983 329,85 C329,92.1797017 323.179702,98 316,98 L106,98 C98.8202983,98 93,92.1797017 93,85 C93,77.8202983 98.8202983,72 106,72 Z" id="Rectangle-Copy-14" fill="#FCE3D1"></path>
            <path d="M330,212 L525,212 C530.522847,212 535,216.477153 535,222 C535,227.522847 530.522847,232 525,232 L330,232 C324.477153,232 320,227.522847 320,222 C320,216.477153 324.477153,212 330,212 Z" id="Rectangle-Copy-15" fill="#FCE3D1"></path>
            <path d="M330,256 L476,256 C481.522847,256 486,260.477153 486,266 C486,271.522847 481.522847,276 476,276 L330,276 C324.477153,276 320,271.522847 320,266 C320,260.477153 324.477153,256 330,256 Z" id="Rectangle-Copy-16" fill="#FCE3D1"></path>
            <path d="M330,300 L427,300 C432.522847,300 437,304.477153 437,310 C437,315.522847 432.522847,320 427,320 L330,320 C324.477153,320 320,315.522847 320,310 C320,304.477153 324.477153,300 330,300 Z" id="Rectangle-Copy-17" fill="#FCE3D1"></path>
            <path d="M106,138 L237,138 C244.179702,138 250,143.820298 250,151 C250,158.179702 244.179702,164 237,164 L106,164 C98.8202983,164 93,158.179702 93,151 C93,143.820298 98.8202983,138 106,138 Z" id="Rectangle-Copy-18" fill="#FCE3D1"></path>
            <polygon id="Path" fill="#FCE3D1" points="154 314 154 338 144 338 144 314"></polygon>
            <polygon id="Path" fill="#FCE3D1" points="172 297 172 338 162 338 162 297"></polygon>
            <polygon id="Path" fill="#FCE3D1" points="190 277 190 338 180 338 180 277"></polygon>
            <polygon id="Path" fill="#FCE3D1" points="208 290 208 338 198 338 198 290"></polygon>
            <polygon id="Path" fill="#FCE3D1" points="226 323 226 338 216 338 216 323"></polygon>
            <polygon id="Path" fill="#FCE3D1" points="244 308 244 338 234 338 234 308"></polygon>
            <polygon id="Path" fill="#FCE3D1" points="262 317 262 338 252 338 252 317"></polygon>
        </g>
    </g>
</svg>