<?xml version="1.0" encoding="UTF-8"?>
<svg width="399px" height="330px" viewBox="0 0 399 330" version="1.1" xmlns="http://www.w3.org/2000/svg" xmlns:xlink="http://www.w3.org/1999/xlink">
    <!-- Generator: Sketch 60 (88103) - https://sketch.com -->
    <title>pic/man</title>
    <desc>Created with Sketch.</desc>
    <g id="pic/man" stroke="none" stroke-width="1" fill="none" fill-rule="evenodd">
        <g id="Group-3" fill-rule="nonzero">
            <path d="M110.910879,306 C147.299545,280.793918 216.686288,243.812886 283.075125,218.264582 C284.251768,217.21116 285.448115,216.149288 286.664167,215.078966 C313.864885,191.017846 350.181771,160.99954 354.55618,128.180089 C358.863031,95.2888134 331.231627,59.5245683 297.427072,40.2080735 C263.622516,20.959178 223.64903,18.0819836 183.599541,18 C143.550051,17.9214353 103.428781,20.5916069 83.4652614,42.3543507 C63.5946344,64.0537202 63.8817578,104.904811 60.8669623,142.177365 C57.8521668,179.449919 51.467894,213.203086 61.1540857,244.801525 C69.0710907,270.806124 87.9241186,295.446062 110.910879,306 Z" id="Path" fill="#FCE5D4"></path>
            <path d="M309.033114,210 C305.514008,208.787206 294,193.461899 294,175.274229 C294,154.143624 316.214618,114.146863 318.326082,99.8986533 C319.670507,90.8366221 325.735169,11 371.791202,11 C396.905395,11 399,60.4065164 399,82.5039635 C399,134.124041 324.403388,178.094187 324.403388,204.907113 C319.406334,206.968948 314.269972,208.670864 309.033114,210 Z" id="Path" fill="#FEA8BF"></path>
            <path d="M370.603507,63.5682855 C371.394221,62.7970236 372.660452,62.8127926 373.431714,63.6035066 C374.202976,64.3942207 374.187207,65.6604525 373.396493,66.4317145 C346.459675,92.7058699 316,167.514549 316,207.999999 C316,209.104569 315.104569,209.999999 314,209.999999 C312.895431,209.999999 312,209.104569 312,207.999999 C312,166.453555 342.881882,90.6079408 370.603507,63.5682855 Z" id="Path" fill="#F78DA9"></path>
            <path d="M136.719456,291 C134.374658,290.301114 128,282.15867 128,271.666959 C128,261.562582 130.832247,246.827033 130.832247,233.156653 C130.832247,225.553109 128,222.858609 128,213.810981 C128,199.391194 141.64017,195 146.422214,195 C153.460811,195 157.225935,201.033155 157.225935,204.228664 C157.225935,208.68722 155.965291,212.072187 155.965291,217.006491 C155.965291,226.65196 159.327009,227.860275 158.974028,236.171125 C157.923492,260.467941 147.855146,284.221647 139.005424,289.610648 L136.719456,291 Z" id="Path" fill="#F78DA9"></path>
            <path d="M136.661937,290.252358 C139.549875,287.764253 123.379114,209.072654 109.353196,195.147699 C94.0944163,180.012428 81.5504663,171.999886 77.4085561,167.03211 C70.0620489,158.22253 65.3839282,125 33.0466298,125 C24.4925932,125 4.33614161,132.063689 0.709331415,161.958905 C-0.477087287,171.772161 -2.63459603,186.785135 17.8131825,208.541296 C31.5857726,223.200031 48.8120655,218.152129 65.6499224,234.033832 C77.7716594,245.466464 76.0743629,262.710299 87.393895,277.280474 C96.4503652,288.919746 119.963411,304.620112 136.661937,290.252358 Z" id="Path" fill="#FEA8BF"></path>
            <path d="M43.2172249,170.093516 C43.7178621,169.108917 44.9218843,168.716588 45.9064838,169.217225 C70.9429163,181.947446 135,271.717268 135,293 C135,294.104569 134.104569,295 133,295 C131.945638,295 131.081835,294.184122 131.005486,293.149262 L131,293 C131,273.341582 67.8715387,184.873135 44.0935162,172.782775 C43.1089167,172.282138 42.7165877,171.078116 43.2172249,170.093516 Z" id="Path" fill="#F78DA9"></path>
            <path d="M140.283217,230.974009 C140.849856,230.025856 142.077838,229.716578 143.025991,230.283217 C143.974144,230.849856 144.283422,232.077838 143.716783,233.025991 C140.118891,239.046318 138.305656,250.554967 138.034735,265.219167 L138.012942,266.749227 C137.915582,276.334694 138.519027,286.991899 139.092038,290.69409 C139.260987,291.785663 138.513053,292.807517 137.421481,292.976466 C136.329909,293.145416 135.308054,292.397482 135.139105,291.30591 L135.073847,290.858072 C134.465126,286.43736 133.874983,275.367157 134.026582,265.663752 L134.035418,265.145279 C134.318762,249.808605 136.213247,237.784261 140.283217,230.974009 Z" id="Path" fill="#FEA8BF"></path>
            <path d="M372.750307,191.520928 C373.567176,191.383027 374.34117,191.933438 374.479072,192.750307 C374.616973,193.567176 374.066562,194.34117 373.249693,194.479072 C327.737567,202.16231 264.363723,226.190935 200.6705,258.12869 C144.804305,286.141731 98.3951761,315.684916 89.2313179,328.856654 C88.7582009,329.536692 87.823384,329.704435 87.1433459,329.231318 C86.4633078,328.758201 86.2955651,327.823384 86.7686821,327.143346 C96.337489,313.389552 142.960245,283.710376 199.32579,255.446946 C263.262341,223.387178 326.887014,199.263449 372.750307,191.520928 Z" id="Path" fill="#4D4D4D"></path>
            <path d="M198,48 L225,48 C231.627417,48 237,53.372583 237,60 L237,130 C237,136.627417 231.627417,142 225,142 L198,142 C191.372583,142 186,136.627417 186,130 L186,60 C186,53.372583 191.372583,48 198,48 Z" id="Rectangle" fill="#FFC294"></path>
            <polygon id="Path" fill="#333333" points="190 295.128337 190 306 160 306 160 301.40045 178.586402 293"></polygon>
            <path d="M254.92171,285 C256.432501,288.301887 260,296.857901 260,296.857901 L245.090986,306 L231.582734,306 L230,300.948113 L246.969953,288.28125 L254.92171,285 Z" id="Path" fill="#333333"></path>
            <ellipse id="Oval" fill="#DE8E68" cx="203.5" cy="30.5" rx="12.5" ry="15.5"></ellipse>
            <path d="M194.416657,1.40711733 C192.767253,-0.853178137 188.110859,-0.34292487 184.016954,2.59630263 C182.46744,3.68624568 181.150608,5.07236139 180.14297,6.6741118 C180.009576,6.61492266 179.86597,6.58198902 179.720046,6.57712151 C177.732303,6.57712151 144.689245,24.1998356 145.002209,32.3301521 C145.315173,40.4604687 156.400013,53.4993373 160.269768,56 C160.269768,56 177.732303,47.8696835 176.793411,45.2593796 C175.85452,42.6490757 165.797385,34.2952598 164.033792,32.6422079 C166.10612,31.5626638 182.693202,15.1755216 184.566756,13.3200552 C186.53326,12.9005944 188.386538,12.0650842 190.00133,10.8699961 C194.086776,7.92655164 196.07029,3.69271461 194.416657,1.40711733 Z" id="Path" fill="#DE8E68"></path>
            <path d="M185.828539,70.103161 C189.705414,67.0711212 183.287033,41.6463793 176.407734,41.0223821 C169.528436,40.398385 157.531663,52.9997767 158.014119,56.5762434 C158.496574,60.1527102 176.03297,77.7251393 185.828539,70.103161 Z" id="Path" fill="#FFC294"></path>
            <path d="M170,130.98327 C170,135.217244 172.065506,281.712738 175.783417,294.414659 C179.088227,296.108249 187.763352,296.531646 190.65506,295.261454 C193.546769,293.991262 212,133.303488 212,126.249687 C212,119.195887 170,130.98327 170,130.98327 Z" id="Path" fill="#F78DA9"></path>
            <path d="M245.885298,290.910431 C241.83758,284.580762 189.132486,161.667024 185,131.360567 C189.327455,128.022721 221.531179,122.701579 224.137824,128.761183 C226.744469,134.820786 258.045403,284.635619 256.973076,286.580937 C255.900749,288.526256 248.928503,291.560277 245.885298,290.910431 Z" id="Path" fill="#FEA8BF"></path>
            <path d="M203.742001,50 C231.008618,50 229.317665,125.553941 223.39933,130.209926 C217.480994,134.865911 171.191157,135.077547 168.231989,131.691376 C165.272821,128.305205 158.280731,50 203.742001,50 Z" id="Path" fill="#FCD1B0"></path>
            <path d="M224,23.8029762 C224,20.5648775 220.922426,18.2288509 220.922426,16.4332166 C220.922426,14.6375823 221.976505,11.4207588 219.618584,9.11877272 C216.752672,6.32319993 212.184993,7.48908569 208.095671,7.48908569 C204.251879,7.48908569 202.131019,3 196.88602,3 C193.389353,3 193.833845,7.56142166 192.52577,8.69326697 C191.556355,9.54427847 184,11.1782206 184,14.6503475 C184,18.53096 184.101598,23.7391504 192.119378,23.7391504 C192.652767,21.8754352 194.659329,17.7820698 196.945285,15.9609052 C198.122129,16.4715121 204.565139,19.1436882 206.161075,19.6159996 C207.757011,20.088311 210.089533,26.9559739 212.561753,27.7857101 C215.033972,28.6154463 215.190602,33.1896331 216.998201,32.9939005 C218.8058,32.7981678 224,32.0322575 224,23.8029762 Z" id="Path" fill="#FFC294"></path>
            <circle id="Oval" fill="#DE8E68" cx="215" cy="31" r="3"></circle>
            <path d="M209.960138,56.3368847 C209.40625,58.122262 197.779008,55.9551833 198.0032,53.9358599 L199.990162,36 L214,38.8155606 C214,38.8155606 210.522817,54.5597159 209.960138,56.3368847 Z" id="Path" fill="#DE8E68"></path>
            <path d="M281.567968,65.3135935 C281.947059,63.4181344 283.790947,62.1888758 285.686406,62.5679676 C287.518684,62.9344231 288.728433,64.669649 288.464615,66.4970848 L288.432032,66.6864065 L241.432032,301.686406 C241.052941,303.581866 239.209053,304.811124 237.313594,304.432032 C235.481316,304.065577 234.271567,302.330351 234.535385,300.502915 L234.567968,300.313594 L281.567968,65.3135935 Z" id="Path" fill="#4D4D4D"></path>
            <path d="M278.457812,131.20968 C277.197371,129.92481 275.571132,129.067807 273.805207,128.757828 C268.162866,119.577238 248.989903,91.2807252 240.534851,81 C234.439938,85.413335 227,93.131341 227,93.131341 C230.108786,96.6449526 253.392959,124.416982 265.781578,135.307472 C265.767266,137.61261 266.683356,139.824516 268.319362,141.434972 C271.453526,144.598928 276.266858,144.87183 279.06688,142.053266 C281.866902,139.234701 281.591976,134.373636 278.457812,131.20968 Z" id="Path" fill="#DE8E68"></path>
            <path d="M215.124328,62.9288469 C225.756194,54.866496 243.284184,74.3620402 242.996503,79.489578 C242.708822,84.6171157 229.237134,95.9874202 224.630129,96 C219.003911,96.0083832 206.074707,69.792117 215.124328,62.9288469 Z" id="Path" fill="#FFC294"></path>
        </g>
    </g>
</svg>