<?xml version="1.0" encoding="UTF-8"?>
<svg width="51px" height="48px" viewBox="0 0 51 48" version="1.1" xmlns="http://www.w3.org/2000/svg" xmlns:xlink="http://www.w3.org/1999/xlink">
    <!-- Generator: Sketch 60.1 (88133) - https://sketch.com -->
    <title>icon/weblogo</title>
    <desc>Created with Sketch.</desc>
    <g id="Page-2" stroke="none" stroke-width="1" fill="none" fill-rule="evenodd">
        <g id="webui_1" transform="translate(-41.000000, -65.000000)">
            <g id="icon/weblogo" transform="translate(34.000000, 56.000000)">
                <g id="Group-11">
                    <g id="Group-9">
                        <rect id="Rectangle" x="0" y="0" width="65" height="65"></rect>
                        <path d="M13.375,44.0624646 C16.8957708,44.0624646 19.75,46.9166938 19.75,50.4374646 C19.75,53.9582354 16.8957708,56.8124646 13.375,56.8124646 C9.85422917,56.8124646 7,53.9582354 7,50.4374646 C7,46.9166938 9.85422917,44.0624646 13.375,44.0624646 Z M45.25,26.3543083 C45.25,29.5078083 44.1025,32.3921417 42.2052292,34.6180792 C39.9424469,37.2734723 36.6113049,38.9906923 32.8749605,39.0987176 L32.5,39.1041312 L21.34375,39.1041312 C10.3403253,39.1041312 7.08882412,42.2049006 7.00180672,42.2898532 L7,42.2916312 L7,39.1043083 C7,32.1659698 12.5414532,26.5224822 19.4402074,26.3579978 L19.75,26.3543083 L45.25,26.3543083 Z M45.25,9 C52.1883385,9 57.8318261,14.541797 57.9963106,21.4402226 L58,21.75 L58,24.9374646 C58,24.9374646 54.8992306,21.8366952 44.1102523,21.7517426 L43.65625,21.7499646 L32.5,21.7499646 C28.737379,21.7499646 25.3578551,20.1184024 23.0245857,17.5261392 L22.7947708,17.2637354 L22.5707227,16.9935637 C20.8841963,14.9020772 19.8432936,12.2682586 19.7559684,9.39348045 L19.75,9 L45.25,9 Z" id="Combined-Shape" fill="#FB355E"></path>
                    </g>
                </g>
            </g>
        </g>
    </g>
</svg>