<svg id="fb_icon" xmlns="http://www.w3.org/2000/svg" width="92" height="92" viewBox="0 0 92 92">
  <g id="Icon_Facebook" data-name="Icon/Facebook">
    <g id="Group-5">
      <rect id="Rectangle" width="92" height="92" fill="none"/>
      <path id="Fill-1" d="M71,63.333A7.675,7.675,0,0,1,63.333,71h-11V47.395h9.242l1.384-10.73H52.334V29.814c0-3.106.863-5.224,5.317-5.224l5.682,0v-9.6a75.891,75.891,0,0,0-8.279-.423c-8.192,0-13.8,5-13.8,14.183v7.913H31.988v10.73h9.265V71H17.333a7.675,7.675,0,0,1-7.667-7.667v-46a7.675,7.675,0,0,1,7.667-7.667h46A7.675,7.675,0,0,1,71,17.333ZM63.333,2h-46A15.351,15.351,0,0,0,2,17.333v46A15.351,15.351,0,0,0,17.333,78.667h46A15.351,15.351,0,0,0,78.667,63.333v-46A15.351,15.351,0,0,0,63.333,2Z" transform="translate(5.667 5.667)" fill="#414141" fill-rule="evenodd"/>
    </g>
  </g>
</svg>
