<?xml version="1.0" encoding="UTF-8"?>
<svg width="52px" height="52px" viewBox="0 0 52 52" version="1.1" xmlns="http://www.w3.org/2000/svg" xmlns:xlink="http://www.w3.org/1999/xlink">
    <!-- Generator: Sketch 59.1 (86144) - https://sketch.com -->
    <title>havent</title>
    <desc>Created with Sketch.</desc>
    <g id="havent" stroke="none" stroke-width="1" fill="none" fill-rule="evenodd">
        <rect id="Rectangle" x="0" y="0" width="52" height="52"></rect>
        <path d="M14.8803206,14.8803206 C16.0540813,13.7065598 17.9571235,13.7065598 19.1308843,14.8803206 L19.1308843,14.8803206 L26,21.75 L32.8691157,14.8803206 C33.9959261,13.7535102 35.7948422,13.7084378 36.9754209,14.7451033 L37.1196794,14.8803206 C38.2934402,16.0540813 38.2934402,17.9571235 37.1196794,19.1308843 L37.1196794,19.1308843 L30.25,26 L37.1196794,32.8691157 C38.2464898,33.9959261 38.2915622,35.7948422 37.2548967,36.9754209 L37.1196794,37.1196794 C35.9459187,38.2934402 34.0428765,38.2934402 32.8691157,37.1196794 L32.8691157,37.1196794 L26,30.25 L19.1308843,37.1196794 C18.0040739,38.2464898 16.2051578,38.2915622 15.0245791,37.2548967 L14.8803206,37.1196794 C13.7065598,35.9459187 13.7065598,34.0428765 14.8803206,32.8691157 L14.8803206,32.8691157 L21.75,26 L14.8803206,19.1308843 C13.7535102,18.0040739 13.7084378,16.2051578 14.7451033,15.0245791 Z" id="Combined-Shape" fill="#D9D9D9" fill-rule="nonzero"></path>
    </g>
</svg>