<svg id="ig_icon" xmlns="http://www.w3.org/2000/svg" width="92" height="92" viewBox="0 0 92 92">
  <g id="Icon_Ig" data-name="Icon/Ig">
    <g id="Group">
      <rect id="Rectangle" width="92" height="92" fill="none"/>
      <g id="Group-7" transform="translate(7.667 7.667)">
        <path id="Fill-1" d="M69,53.667A15.351,15.351,0,0,1,53.667,69H23A15.351,15.351,0,0,1,7.667,53.667V23A15.351,15.351,0,0,1,23,7.667H53.667A15.351,15.351,0,0,1,69,23ZM53.667,0H23A23.026,23.026,0,0,0,0,23V53.667a23.026,23.026,0,0,0,23,23H53.667a23.026,23.026,0,0,0,23-23V23A23.026,23.026,0,0,0,53.667,0Z" fill="#414141" fill-rule="evenodd"/>
        <path id="Fill-3" d="M25.583,39A13.417,13.417,0,1,1,39,25.583,13.432,13.432,0,0,1,25.583,39m0-34.5A21.083,21.083,0,1,0,46.667,25.583,21.107,21.107,0,0,0,25.583,4.5" transform="translate(12.75 12.75)" fill="#414141" fill-rule="evenodd"/>
        <path id="Fill-5" d="M17.986,3.333a4.153,4.153,0,1,0,4.153,4.153,4.153,4.153,0,0,0-4.153-4.153" transform="translate(39.194 9.444)" fill="#414141" fill-rule="evenodd"/>
      </g>
    </g>
  </g>
</svg>
