<?xml version="1.0" encoding="UTF-8"?>
<svg width="110px" height="243px" viewBox="0 0 110 243" version="1.1" xmlns="http://www.w3.org/2000/svg" xmlns:xlink="http://www.w3.org/1999/xlink">
    <!-- Generator: Sketch 59.1 (86144) - https://sketch.com -->
    <title>rocket</title>
    <desc>Created with Sketch.</desc>
    <defs>
        <linearGradient x1="50%" y1="0%" x2="50%" y2="99.8786264%" id="linearGradient-1">
            <stop stop-color="#F42828" offset="0%"></stop>
            <stop stop-color="#F7A717" offset="99.9392948%"></stop>
        </linearGradient>
        <path d="M35.5387,167.1781 C46.6837,157.5661 63.4677,157.4691 74.3557,167.3721 C87.7287,179.5361 86.1007,201.1731 69.6417,214.4671 C47.1617,232.6241 53.2137,243.0001 53.2137,243.0001 C33.3277,222.2481 50.6207,195.4441 41.1087,195.4441 C31.5977,195.4441 37.2177,219.2231 37.2177,219.2231 C19.8867,190.6491 26.1547,175.2711 35.5387,167.1781 Z M54.8,0 C54.8,0 100.8,32 96.8,89 C96.8,89 116.8,105 106.8,134 L106.8,134 L85.8,125 L72.8,151 L36.8,151 L23.8,125 L2.8,134 C-7.2,105 12.8,89 12.8,89 C8.8,32 54.8,0 54.8,0 Z M54.8,55.5 C43.754,55.5 34.8,64.454 34.8,75.5 C34.8,86.546 43.754,95.5 54.8,95.5 C65.846,95.5 74.8,86.546 74.8,75.5 C74.8,64.454 65.846,55.5 54.8,55.5 Z" id="path-2"></path>
        <filter x="-15.5%" y="-5.3%" width="131.0%" height="114.0%" filterUnits="objectBoundingBox" id="filter-3">
            <feOffset dx="0" dy="4" in="SourceAlpha" result="shadowOffsetOuter1"></feOffset>
            <feGaussianBlur stdDeviation="5" in="shadowOffsetOuter1" result="shadowBlurOuter1"></feGaussianBlur>
            <feColorMatrix values="0 0 0 0 0   0 0 0 0 0   0 0 0 0 0  0 0 0 0.11 0" type="matrix" in="shadowBlurOuter1"></feColorMatrix>
        </filter>
    </defs>
    <g id="rocket" stroke="none" stroke-width="1" fill="none" fill-rule="evenodd">
        <g id="Group-15">
            <g id="Group-6">
                <g id="Combined-Shape">
                    <use fill="black" fill-opacity="1" filter="url(#filter-3)" xlink:href="#path-2"></use>
                    <use fill="url(#linearGradient-1)" fill-rule="evenodd" xlink:href="#path-2"></use>
                </g>
            </g>
            <ellipse id="Oval" fill="#FFFFFF" cx="55" cy="76.5" rx="23" ry="22.5"></ellipse>
        </g>
    </g>
</svg>